# xmcd CD database file
#
# Track frame offsets:
#	150
#	1060
#	18391
#	32695
#	51021
#	68022
#	85065
#	97067
#	114640
#	135022
#	146989
#	163176
#	178669
#	191158
#	203509
#	217878
#	237776
#	251410
#	275059
#	296008
#
# Disc length: 4357 seconds
#
# Revision: 0
# Processed by: cddbd v1.5.1PL0 Copyright (c) Steve Scherf et al.
# Submitted via: CDex 1.40Release
#
DISCID=18110314
DTITLE=Road Side - In the Past - live
DYEAR=1900
DGENRE=Country
TTITLE0=Intro
TTITLE1=Folsom Prison Blues
TTITLE2=Light Of Heaven
TTITLE3=Gone Country
TTITLE4=Downtown Nashville
TTITLE5=Seminole Wind
TTITLE6=Understand Your Man
TTITLE7=Thank God It's Friday
TTITLE8=Cotton Eyed Joe
TTITLE9=If There's A Chance
TTITLE10=Is This Love
TTITLE11=Oh Lonesome Me
TTITLE12=Amarillo By Morning
TTITLE13=I Want You
TTITLE14=The Race Is On
TTITLE15=Before You Accused Me
TTITLE16=If Hollywood Don't Need You
TTITLE17=Down In The Valley
TTITLE18=Unchained My Heart
TTITLE19=Orange Blossom Special
EXTD=ID3G: 2
EXTT0=
EXTT1=
EXTT2=
EXTT3=
EXTT4=
EXTT5=
EXTT6=
EXTT7=
EXTT8=
EXTT9=
EXTT10=
EXTT11=
EXTT12=
EXTT13=
EXTT14=
EXTT15=
EXTT16=
EXTT17=
EXTT18=
EXTT19=
PLAYORDER=
